<mxfile host="Electron" modified="2024-04-20T12:26:52.894Z" agent="Mozilla/5.0 (Windows NT 10.0; Win64; x64) AppleWebKit/537.36 (KHTML, like Gecko) draw.io/22.1.21 Chrome/120.0.6099.109 Electron/28.1.0 Safari/537.36" etag="iMHOHwNx7GJhvML9kSNL" version="22.1.21" type="device">
  <diagram id="ueIHQ7YklUUz8t2qg_kw" name="Page-1">
    <mxGraphModel dx="1611" dy="356" grid="0" gridSize="10" guides="1" tooltips="1" connect="1" arrows="1" fold="1" page="1" pageScale="1" pageWidth="850" pageHeight="1100" background="none" math="0" shadow="0">
      <root>
        <mxCell id="0" />
        <mxCell id="1" parent="0" />
        <mxCell id="LBKvkX6FomTkOZFx55Uo-343" value="magic_mover" style="shape=table;startSize=30;container=1;collapsible=1;childLayout=tableLayout;fixedRows=1;rowLines=0;fontStyle=1;align=center;resizeLast=1;fillColor=#21C0A5;strokeColor=#006658;fontColor=#5C5C5C;shadow=0;rounded=1;" parent="1" vertex="1">
          <mxGeometry x="5.684341886080802e-14" y="373" width="109" height="151" as="geometry">
            <mxRectangle x="-217" y="650" width="60" height="30" as="alternateBounds" />
          </mxGeometry>
        </mxCell>
        <mxCell id="LBKvkX6FomTkOZFx55Uo-344" value="" style="shape=partialRectangle;collapsible=0;dropTarget=0;pointerEvents=0;fillColor=none;points=[[0,0.5],[1,0.5]];portConstraint=eastwest;top=0;left=0;right=0;bottom=1;strokeColor=#006658;fontColor=#5C5C5C;" parent="LBKvkX6FomTkOZFx55Uo-343" vertex="1">
          <mxGeometry y="30" width="109" height="30" as="geometry" />
        </mxCell>
        <mxCell id="LBKvkX6FomTkOZFx55Uo-345" value="PK" style="shape=partialRectangle;overflow=hidden;connectable=0;fillColor=none;top=0;left=0;bottom=0;right=0;fontStyle=1;strokeColor=#006658;fontColor=#5C5C5C;" parent="LBKvkX6FomTkOZFx55Uo-344" vertex="1">
          <mxGeometry width="30" height="30" as="geometry">
            <mxRectangle width="30" height="30" as="alternateBounds" />
          </mxGeometry>
        </mxCell>
        <mxCell id="LBKvkX6FomTkOZFx55Uo-346" value="id" style="shape=partialRectangle;overflow=hidden;connectable=0;fillColor=none;top=0;left=0;bottom=0;right=0;align=left;spacingLeft=6;fontStyle=5;strokeColor=#006658;fontColor=#5C5C5C;" parent="LBKvkX6FomTkOZFx55Uo-344" vertex="1">
          <mxGeometry x="30" width="79" height="30" as="geometry">
            <mxRectangle width="79" height="30" as="alternateBounds" />
          </mxGeometry>
        </mxCell>
        <mxCell id="LBKvkX6FomTkOZFx55Uo-350" style="shape=partialRectangle;collapsible=0;dropTarget=0;pointerEvents=0;fillColor=none;points=[[0,0.5],[1,0.5]];portConstraint=eastwest;top=0;left=0;right=0;bottom=0;strokeColor=#006658;fontColor=#5C5C5C;" parent="LBKvkX6FomTkOZFx55Uo-343" vertex="1">
          <mxGeometry y="60" width="109" height="31" as="geometry" />
        </mxCell>
        <mxCell id="LBKvkX6FomTkOZFx55Uo-351" value="" style="shape=partialRectangle;overflow=hidden;connectable=0;fillColor=none;top=0;left=0;bottom=0;right=0;strokeColor=#006658;fontColor=#5C5C5C;fontStyle=1" parent="LBKvkX6FomTkOZFx55Uo-350" vertex="1">
          <mxGeometry width="30" height="31" as="geometry">
            <mxRectangle width="30" height="31" as="alternateBounds" />
          </mxGeometry>
        </mxCell>
        <mxCell id="LBKvkX6FomTkOZFx55Uo-352" value="weight " style="shape=partialRectangle;overflow=hidden;connectable=0;fillColor=none;top=0;left=0;bottom=0;right=0;align=left;spacingLeft=6;strokeColor=#006658;fontColor=#5C5C5C;fontStyle=0" parent="LBKvkX6FomTkOZFx55Uo-350" vertex="1">
          <mxGeometry x="30" width="79" height="31" as="geometry">
            <mxRectangle width="79" height="31" as="alternateBounds" />
          </mxGeometry>
        </mxCell>
        <mxCell id="LBKvkX6FomTkOZFx55Uo-353" style="shape=partialRectangle;collapsible=0;dropTarget=0;pointerEvents=0;fillColor=none;points=[[0,0.5],[1,0.5]];portConstraint=eastwest;top=0;left=0;right=0;bottom=0;strokeColor=#006658;fontColor=#5C5C5C;" parent="LBKvkX6FomTkOZFx55Uo-343" vertex="1">
          <mxGeometry y="91" width="109" height="20" as="geometry" />
        </mxCell>
        <mxCell id="LBKvkX6FomTkOZFx55Uo-354" style="shape=partialRectangle;overflow=hidden;connectable=0;fillColor=none;top=0;left=0;bottom=0;right=0;strokeColor=#006658;fontColor=#5C5C5C;fontStyle=1" parent="LBKvkX6FomTkOZFx55Uo-353" vertex="1">
          <mxGeometry width="30" height="20" as="geometry">
            <mxRectangle width="30" height="20" as="alternateBounds" />
          </mxGeometry>
        </mxCell>
        <mxCell id="LBKvkX6FomTkOZFx55Uo-355" value="energy" style="shape=partialRectangle;overflow=hidden;connectable=0;fillColor=none;top=0;left=0;bottom=0;right=0;align=left;spacingLeft=6;strokeColor=#006658;fontColor=#5C5C5C;fontStyle=0" parent="LBKvkX6FomTkOZFx55Uo-353" vertex="1">
          <mxGeometry x="30" width="79" height="20" as="geometry">
            <mxRectangle width="79" height="20" as="alternateBounds" />
          </mxGeometry>
        </mxCell>
        <mxCell id="f_zq2WLGtp9d5yzJY2UQ-39" style="shape=partialRectangle;collapsible=0;dropTarget=0;pointerEvents=0;fillColor=none;points=[[0,0.5],[1,0.5]];portConstraint=eastwest;top=0;left=0;right=0;bottom=0;strokeColor=#006658;fontColor=#5C5C5C;" parent="LBKvkX6FomTkOZFx55Uo-343" vertex="1">
          <mxGeometry y="111" width="109" height="20" as="geometry" />
        </mxCell>
        <mxCell id="f_zq2WLGtp9d5yzJY2UQ-40" style="shape=partialRectangle;overflow=hidden;connectable=0;fillColor=none;top=0;left=0;bottom=0;right=0;strokeColor=#006658;fontColor=#5C5C5C;fontStyle=1" parent="f_zq2WLGtp9d5yzJY2UQ-39" vertex="1">
          <mxGeometry width="30" height="20" as="geometry">
            <mxRectangle width="30" height="20" as="alternateBounds" />
          </mxGeometry>
        </mxCell>
        <mxCell id="f_zq2WLGtp9d5yzJY2UQ-41" value="quest_state " style="shape=partialRectangle;overflow=hidden;connectable=0;fillColor=none;top=0;left=0;bottom=0;right=0;align=left;spacingLeft=6;strokeColor=#006658;fontColor=#5C5C5C;fontStyle=0" parent="f_zq2WLGtp9d5yzJY2UQ-39" vertex="1">
          <mxGeometry x="30" width="79" height="20" as="geometry">
            <mxRectangle width="79" height="20" as="alternateBounds" />
          </mxGeometry>
        </mxCell>
        <mxCell id="f_zq2WLGtp9d5yzJY2UQ-33" style="shape=partialRectangle;collapsible=0;dropTarget=0;pointerEvents=0;fillColor=none;points=[[0,0.5],[1,0.5]];portConstraint=eastwest;top=0;left=0;right=0;bottom=0;strokeColor=#006658;fontColor=#5C5C5C;" parent="LBKvkX6FomTkOZFx55Uo-343" vertex="1">
          <mxGeometry y="131" width="109" height="20" as="geometry" />
        </mxCell>
        <mxCell id="f_zq2WLGtp9d5yzJY2UQ-34" value="FK" style="shape=partialRectangle;overflow=hidden;connectable=0;fillColor=none;top=0;left=0;bottom=0;right=0;strokeColor=#006658;fontColor=#5C5C5C;fontStyle=1" parent="f_zq2WLGtp9d5yzJY2UQ-33" vertex="1">
          <mxGeometry width="30" height="20" as="geometry">
            <mxRectangle width="30" height="20" as="alternateBounds" />
          </mxGeometry>
        </mxCell>
        <mxCell id="f_zq2WLGtp9d5yzJY2UQ-35" value="user_id" style="shape=partialRectangle;overflow=hidden;connectable=0;fillColor=none;top=0;left=0;bottom=0;right=0;align=left;spacingLeft=6;strokeColor=#006658;fontColor=#5C5C5C;fontStyle=0" parent="f_zq2WLGtp9d5yzJY2UQ-33" vertex="1">
          <mxGeometry x="30" width="79" height="20" as="geometry">
            <mxRectangle width="79" height="20" as="alternateBounds" />
          </mxGeometry>
        </mxCell>
        <mxCell id="LBKvkX6FomTkOZFx55Uo-652" value="user" style="shape=table;startSize=30;container=1;collapsible=1;childLayout=tableLayout;fixedRows=1;rowLines=0;fontStyle=1;align=center;resizeLast=1;fillColor=#21C0A5;strokeColor=#006658;fontColor=#5C5C5C;shadow=0;rounded=1;" parent="1" vertex="1">
          <mxGeometry x="250" y="303" width="159" height="210" as="geometry" />
        </mxCell>
        <mxCell id="LBKvkX6FomTkOZFx55Uo-653" value="" style="shape=partialRectangle;collapsible=0;dropTarget=0;pointerEvents=0;fillColor=none;points=[[0,0.5],[1,0.5]];portConstraint=eastwest;top=0;left=0;right=0;bottom=1;strokeColor=#006658;fontColor=#5C5C5C;" parent="LBKvkX6FomTkOZFx55Uo-652" vertex="1">
          <mxGeometry y="30" width="159" height="30" as="geometry" />
        </mxCell>
        <mxCell id="LBKvkX6FomTkOZFx55Uo-654" value="PK" style="shape=partialRectangle;overflow=hidden;connectable=0;fillColor=none;top=0;left=0;bottom=0;right=0;fontStyle=1;strokeColor=#006658;fontColor=#5C5C5C;" parent="LBKvkX6FomTkOZFx55Uo-653" vertex="1">
          <mxGeometry width="30" height="30" as="geometry">
            <mxRectangle width="30" height="30" as="alternateBounds" />
          </mxGeometry>
        </mxCell>
        <mxCell id="LBKvkX6FomTkOZFx55Uo-655" value="id" style="shape=partialRectangle;overflow=hidden;connectable=0;fillColor=none;top=0;left=0;bottom=0;right=0;align=left;spacingLeft=6;fontStyle=5;strokeColor=#006658;fontColor=#5C5C5C;" parent="LBKvkX6FomTkOZFx55Uo-653" vertex="1">
          <mxGeometry x="30" width="129" height="30" as="geometry">
            <mxRectangle width="129" height="30" as="alternateBounds" />
          </mxGeometry>
        </mxCell>
        <mxCell id="LBKvkX6FomTkOZFx55Uo-656" style="shape=partialRectangle;collapsible=0;dropTarget=0;pointerEvents=0;fillColor=none;points=[[0,0.5],[1,0.5]];portConstraint=eastwest;top=0;left=0;right=0;bottom=0;strokeColor=#006658;fontColor=#5C5C5C;" parent="LBKvkX6FomTkOZFx55Uo-652" vertex="1">
          <mxGeometry y="60" width="159" height="30" as="geometry" />
        </mxCell>
        <mxCell id="LBKvkX6FomTkOZFx55Uo-657" value="" style="shape=partialRectangle;overflow=hidden;connectable=0;fillColor=none;top=0;left=0;bottom=0;right=0;strokeColor=#006658;fontColor=#5C5C5C;fontStyle=1" parent="LBKvkX6FomTkOZFx55Uo-656" vertex="1">
          <mxGeometry width="30" height="30" as="geometry">
            <mxRectangle width="30" height="30" as="alternateBounds" />
          </mxGeometry>
        </mxCell>
        <mxCell id="LBKvkX6FomTkOZFx55Uo-658" value="name" style="shape=partialRectangle;overflow=hidden;connectable=0;fillColor=none;top=0;left=0;bottom=0;right=0;align=left;spacingLeft=6;strokeColor=#006658;fontColor=#5C5C5C;" parent="LBKvkX6FomTkOZFx55Uo-656" vertex="1">
          <mxGeometry x="30" width="129" height="30" as="geometry">
            <mxRectangle width="129" height="30" as="alternateBounds" />
          </mxGeometry>
        </mxCell>
        <mxCell id="LBKvkX6FomTkOZFx55Uo-659" style="shape=partialRectangle;collapsible=0;dropTarget=0;pointerEvents=0;fillColor=none;points=[[0,0.5],[1,0.5]];portConstraint=eastwest;top=0;left=0;right=0;bottom=0;strokeColor=#006658;fontColor=#5C5C5C;" parent="LBKvkX6FomTkOZFx55Uo-652" vertex="1">
          <mxGeometry y="90" width="159" height="30" as="geometry" />
        </mxCell>
        <mxCell id="LBKvkX6FomTkOZFx55Uo-660" value=" " style="shape=partialRectangle;overflow=hidden;connectable=0;fillColor=none;top=0;left=0;bottom=0;right=0;strokeColor=#006658;fontColor=#5C5C5C;fontStyle=1" parent="LBKvkX6FomTkOZFx55Uo-659" vertex="1">
          <mxGeometry width="30" height="30" as="geometry">
            <mxRectangle width="30" height="30" as="alternateBounds" />
          </mxGeometry>
        </mxCell>
        <mxCell id="LBKvkX6FomTkOZFx55Uo-661" value="email" style="shape=partialRectangle;overflow=hidden;connectable=0;fillColor=none;top=0;left=0;bottom=0;right=0;align=left;spacingLeft=6;strokeColor=#006658;fontColor=#5C5C5C;" parent="LBKvkX6FomTkOZFx55Uo-659" vertex="1">
          <mxGeometry x="30" width="129" height="30" as="geometry">
            <mxRectangle width="129" height="30" as="alternateBounds" />
          </mxGeometry>
        </mxCell>
        <mxCell id="LBKvkX6FomTkOZFx55Uo-662" value="" style="shape=partialRectangle;collapsible=0;dropTarget=0;pointerEvents=0;fillColor=none;points=[[0,0.5],[1,0.5]];portConstraint=eastwest;top=0;left=0;right=0;bottom=0;strokeColor=#006658;fontColor=#5C5C5C;" parent="LBKvkX6FomTkOZFx55Uo-652" vertex="1">
          <mxGeometry y="120" width="159" height="30" as="geometry" />
        </mxCell>
        <mxCell id="LBKvkX6FomTkOZFx55Uo-663" value="" style="shape=partialRectangle;overflow=hidden;connectable=0;fillColor=none;top=0;left=0;bottom=0;right=0;strokeColor=#006658;fontColor=#5C5C5C;" parent="LBKvkX6FomTkOZFx55Uo-662" vertex="1">
          <mxGeometry width="30" height="30" as="geometry">
            <mxRectangle width="30" height="30" as="alternateBounds" />
          </mxGeometry>
        </mxCell>
        <mxCell id="LBKvkX6FomTkOZFx55Uo-664" value="password" style="shape=partialRectangle;overflow=hidden;connectable=0;fillColor=none;top=0;left=0;bottom=0;right=0;align=left;spacingLeft=6;strokeColor=#006658;fontColor=#5C5C5C;" parent="LBKvkX6FomTkOZFx55Uo-662" vertex="1">
          <mxGeometry x="30" width="129" height="30" as="geometry">
            <mxRectangle width="129" height="30" as="alternateBounds" />
          </mxGeometry>
        </mxCell>
        <mxCell id="NoG3rXmNlTMpTpLEfdZS-25" style="shape=partialRectangle;collapsible=0;dropTarget=0;pointerEvents=0;fillColor=none;points=[[0,0.5],[1,0.5]];portConstraint=eastwest;top=0;left=0;right=0;bottom=0;strokeColor=#006658;fontColor=#5C5C5C;" parent="LBKvkX6FomTkOZFx55Uo-652" vertex="1">
          <mxGeometry y="150" width="159" height="30" as="geometry" />
        </mxCell>
        <mxCell id="NoG3rXmNlTMpTpLEfdZS-26" style="shape=partialRectangle;overflow=hidden;connectable=0;fillColor=none;top=0;left=0;bottom=0;right=0;strokeColor=#006658;fontColor=#5C5C5C;" parent="NoG3rXmNlTMpTpLEfdZS-25" vertex="1">
          <mxGeometry width="30" height="30" as="geometry">
            <mxRectangle width="30" height="30" as="alternateBounds" />
          </mxGeometry>
        </mxCell>
        <mxCell id="NoG3rXmNlTMpTpLEfdZS-27" value="verification_email" style="shape=partialRectangle;overflow=hidden;connectable=0;fillColor=none;top=0;left=0;bottom=0;right=0;align=left;spacingLeft=6;strokeColor=#006658;fontColor=#5C5C5C;" parent="NoG3rXmNlTMpTpLEfdZS-25" vertex="1">
          <mxGeometry x="30" width="129" height="30" as="geometry">
            <mxRectangle width="129" height="30" as="alternateBounds" />
          </mxGeometry>
        </mxCell>
        <mxCell id="LOLRWR3OOMBm7aE0_2CP-4" style="shape=partialRectangle;collapsible=0;dropTarget=0;pointerEvents=0;fillColor=none;points=[[0,0.5],[1,0.5]];portConstraint=eastwest;top=0;left=0;right=0;bottom=0;strokeColor=#006658;fontColor=#5C5C5C;" parent="LBKvkX6FomTkOZFx55Uo-652" vertex="1">
          <mxGeometry y="180" width="159" height="30" as="geometry" />
        </mxCell>
        <mxCell id="LOLRWR3OOMBm7aE0_2CP-5" style="shape=partialRectangle;overflow=hidden;connectable=0;fillColor=none;top=0;left=0;bottom=0;right=0;strokeColor=#006658;fontColor=#5C5C5C;" parent="LOLRWR3OOMBm7aE0_2CP-4" vertex="1">
          <mxGeometry width="30" height="30" as="geometry">
            <mxRectangle width="30" height="30" as="alternateBounds" />
          </mxGeometry>
        </mxCell>
        <mxCell id="LOLRWR3OOMBm7aE0_2CP-6" value="picture" style="shape=partialRectangle;overflow=hidden;connectable=0;fillColor=none;top=0;left=0;bottom=0;right=0;align=left;spacingLeft=6;strokeColor=#006658;fontColor=#5C5C5C;" parent="LOLRWR3OOMBm7aE0_2CP-4" vertex="1">
          <mxGeometry x="30" width="129" height="30" as="geometry">
            <mxRectangle width="129" height="30" as="alternateBounds" />
          </mxGeometry>
        </mxCell>
        <mxCell id="LBKvkX6FomTkOZFx55Uo-674" value="" style="edgeStyle=entityRelationEdgeStyle;endArrow=ERzeroToMany;startArrow=ERone;endFill=1;startFill=0;strokeColor=#B20000;fontColor=#5C5C5C;fillColor=#e51400;strokeWidth=2;entryX=1;entryY=0.5;entryDx=0;entryDy=0;" parent="1" source="LBKvkX6FomTkOZFx55Uo-653" target="f_zq2WLGtp9d5yzJY2UQ-33" edge="1">
          <mxGeometry width="100" height="100" relative="1" as="geometry">
            <mxPoint x="135" y="-32" as="sourcePoint" />
            <mxPoint x="185" y="159" as="targetPoint" />
          </mxGeometry>
        </mxCell>
        <mxCell id="f_zq2WLGtp9d5yzJY2UQ-1" value="refresh_tokens" style="shape=table;startSize=30;container=1;collapsible=1;childLayout=tableLayout;fixedRows=1;rowLines=0;fontStyle=1;align=center;resizeLast=1;fillColor=#21C0A5;strokeColor=#006658;fontColor=#5C5C5C;shadow=0;rounded=1;" parent="1" vertex="1">
          <mxGeometry x="580" y="299" width="132" height="180" as="geometry" />
        </mxCell>
        <mxCell id="f_zq2WLGtp9d5yzJY2UQ-2" value="" style="shape=partialRectangle;collapsible=0;dropTarget=0;pointerEvents=0;fillColor=none;points=[[0,0.5],[1,0.5]];portConstraint=eastwest;top=0;left=0;right=0;bottom=1;strokeColor=#006658;fontColor=#5C5C5C;" parent="f_zq2WLGtp9d5yzJY2UQ-1" vertex="1">
          <mxGeometry y="30" width="132" height="30" as="geometry" />
        </mxCell>
        <mxCell id="f_zq2WLGtp9d5yzJY2UQ-3" value="PK" style="shape=partialRectangle;overflow=hidden;connectable=0;fillColor=none;top=0;left=0;bottom=0;right=0;fontStyle=1;strokeColor=#006658;fontColor=#5C5C5C;" parent="f_zq2WLGtp9d5yzJY2UQ-2" vertex="1">
          <mxGeometry width="30" height="30" as="geometry">
            <mxRectangle width="30" height="30" as="alternateBounds" />
          </mxGeometry>
        </mxCell>
        <mxCell id="f_zq2WLGtp9d5yzJY2UQ-4" value="id" style="shape=partialRectangle;overflow=hidden;connectable=0;fillColor=none;top=0;left=0;bottom=0;right=0;align=left;spacingLeft=6;fontStyle=5;strokeColor=#006658;fontColor=#5C5C5C;" parent="f_zq2WLGtp9d5yzJY2UQ-2" vertex="1">
          <mxGeometry x="30" width="102" height="30" as="geometry">
            <mxRectangle width="102" height="30" as="alternateBounds" />
          </mxGeometry>
        </mxCell>
        <mxCell id="f_zq2WLGtp9d5yzJY2UQ-5" style="shape=partialRectangle;collapsible=0;dropTarget=0;pointerEvents=0;fillColor=none;points=[[0,0.5],[1,0.5]];portConstraint=eastwest;top=0;left=0;right=0;bottom=0;strokeColor=#006658;fontColor=#5C5C5C;" parent="f_zq2WLGtp9d5yzJY2UQ-1" vertex="1">
          <mxGeometry y="60" width="132" height="30" as="geometry" />
        </mxCell>
        <mxCell id="f_zq2WLGtp9d5yzJY2UQ-6" value="" style="shape=partialRectangle;overflow=hidden;connectable=0;fillColor=none;top=0;left=0;bottom=0;right=0;strokeColor=#006658;fontColor=#5C5C5C;fontStyle=1" parent="f_zq2WLGtp9d5yzJY2UQ-5" vertex="1">
          <mxGeometry width="30" height="30" as="geometry">
            <mxRectangle width="30" height="30" as="alternateBounds" />
          </mxGeometry>
        </mxCell>
        <mxCell id="f_zq2WLGtp9d5yzJY2UQ-7" value="refresh_token" style="shape=partialRectangle;overflow=hidden;connectable=0;fillColor=none;top=0;left=0;bottom=0;right=0;align=left;spacingLeft=6;strokeColor=#006658;fontColor=#5C5C5C;" parent="f_zq2WLGtp9d5yzJY2UQ-5" vertex="1">
          <mxGeometry x="30" width="102" height="30" as="geometry">
            <mxRectangle width="102" height="30" as="alternateBounds" />
          </mxGeometry>
        </mxCell>
        <mxCell id="f_zq2WLGtp9d5yzJY2UQ-8" style="shape=partialRectangle;collapsible=0;dropTarget=0;pointerEvents=0;fillColor=none;points=[[0,0.5],[1,0.5]];portConstraint=eastwest;top=0;left=0;right=0;bottom=0;strokeColor=#006658;fontColor=#5C5C5C;" parent="f_zq2WLGtp9d5yzJY2UQ-1" vertex="1">
          <mxGeometry y="90" width="132" height="30" as="geometry" />
        </mxCell>
        <mxCell id="f_zq2WLGtp9d5yzJY2UQ-9" value=" " style="shape=partialRectangle;overflow=hidden;connectable=0;fillColor=none;top=0;left=0;bottom=0;right=0;strokeColor=#006658;fontColor=#5C5C5C;fontStyle=1" parent="f_zq2WLGtp9d5yzJY2UQ-8" vertex="1">
          <mxGeometry width="30" height="30" as="geometry">
            <mxRectangle width="30" height="30" as="alternateBounds" />
          </mxGeometry>
        </mxCell>
        <mxCell id="f_zq2WLGtp9d5yzJY2UQ-10" value="device_info(json)" style="shape=partialRectangle;overflow=hidden;connectable=0;fillColor=none;top=0;left=0;bottom=0;right=0;align=left;spacingLeft=6;strokeColor=#006658;fontColor=#5C5C5C;" parent="f_zq2WLGtp9d5yzJY2UQ-8" vertex="1">
          <mxGeometry x="30" width="102" height="30" as="geometry">
            <mxRectangle width="102" height="30" as="alternateBounds" />
          </mxGeometry>
        </mxCell>
        <mxCell id="f_zq2WLGtp9d5yzJY2UQ-11" value="" style="shape=partialRectangle;collapsible=0;dropTarget=0;pointerEvents=0;fillColor=none;points=[[0,0.5],[1,0.5]];portConstraint=eastwest;top=0;left=0;right=0;bottom=0;strokeColor=#006658;fontColor=#5C5C5C;" parent="f_zq2WLGtp9d5yzJY2UQ-1" vertex="1">
          <mxGeometry y="120" width="132" height="30" as="geometry" />
        </mxCell>
        <mxCell id="f_zq2WLGtp9d5yzJY2UQ-12" value="FK" style="shape=partialRectangle;overflow=hidden;connectable=0;fillColor=none;top=0;left=0;bottom=0;right=0;strokeColor=#006658;fontColor=#5C5C5C;fontStyle=1" parent="f_zq2WLGtp9d5yzJY2UQ-11" vertex="1">
          <mxGeometry width="30" height="30" as="geometry">
            <mxRectangle width="30" height="30" as="alternateBounds" />
          </mxGeometry>
        </mxCell>
        <mxCell id="f_zq2WLGtp9d5yzJY2UQ-13" value="user_id" style="shape=partialRectangle;overflow=hidden;connectable=0;fillColor=none;top=0;left=0;bottom=0;right=0;align=left;spacingLeft=6;strokeColor=#006658;fontColor=#5C5C5C;" parent="f_zq2WLGtp9d5yzJY2UQ-11" vertex="1">
          <mxGeometry x="30" width="102" height="30" as="geometry">
            <mxRectangle width="102" height="30" as="alternateBounds" />
          </mxGeometry>
        </mxCell>
        <mxCell id="f_zq2WLGtp9d5yzJY2UQ-14" style="shape=partialRectangle;collapsible=0;dropTarget=0;pointerEvents=0;fillColor=none;points=[[0,0.5],[1,0.5]];portConstraint=eastwest;top=0;left=0;right=0;bottom=0;strokeColor=#006658;fontColor=#5C5C5C;" parent="f_zq2WLGtp9d5yzJY2UQ-1" vertex="1">
          <mxGeometry y="150" width="132" height="30" as="geometry" />
        </mxCell>
        <mxCell id="f_zq2WLGtp9d5yzJY2UQ-15" style="shape=partialRectangle;overflow=hidden;connectable=0;fillColor=none;top=0;left=0;bottom=0;right=0;strokeColor=#006658;fontColor=#5C5C5C;fontStyle=1" parent="f_zq2WLGtp9d5yzJY2UQ-14" vertex="1">
          <mxGeometry width="30" height="30" as="geometry">
            <mxRectangle width="30" height="30" as="alternateBounds" />
          </mxGeometry>
        </mxCell>
        <mxCell id="f_zq2WLGtp9d5yzJY2UQ-16" value="createdAt" style="shape=partialRectangle;overflow=hidden;connectable=0;fillColor=none;top=0;left=0;bottom=0;right=0;align=left;spacingLeft=6;strokeColor=#006658;fontColor=#5C5C5C;" parent="f_zq2WLGtp9d5yzJY2UQ-14" vertex="1">
          <mxGeometry x="30" width="102" height="30" as="geometry">
            <mxRectangle width="102" height="30" as="alternateBounds" />
          </mxGeometry>
        </mxCell>
        <mxCell id="f_zq2WLGtp9d5yzJY2UQ-23" value="" style="edgeStyle=entityRelationEdgeStyle;endArrow=ERzeroToMany;startArrow=ERone;endFill=1;startFill=0;strokeColor=#B20000;fontColor=#5C5C5C;fillColor=#e51400;strokeWidth=2;entryX=1;entryY=0.5;entryDx=0;entryDy=0;exitX=0;exitY=0.5;exitDx=0;exitDy=0;" parent="1" source="f_zq2WLGtp9d5yzJY2UQ-11" target="LBKvkX6FomTkOZFx55Uo-653" edge="1">
          <mxGeometry width="100" height="100" relative="1" as="geometry">
            <mxPoint x="540" y="-106" as="sourcePoint" />
            <mxPoint x="396" y="122" as="targetPoint" />
          </mxGeometry>
        </mxCell>
        <mxCell id="olQb39r_LatT-an38xmG-54" value="magic_item " style="shape=table;startSize=30;container=1;collapsible=1;childLayout=tableLayout;fixedRows=1;rowLines=0;fontStyle=1;align=center;resizeLast=1;fillColor=#21C0A5;strokeColor=#006658;fontColor=#5C5C5C;shadow=0;rounded=1;" vertex="1" parent="1">
          <mxGeometry x="-450.99999999999994" y="258" width="109" height="131" as="geometry">
            <mxRectangle x="-217" y="650" width="60" height="30" as="alternateBounds" />
          </mxGeometry>
        </mxCell>
        <mxCell id="olQb39r_LatT-an38xmG-55" value="" style="shape=partialRectangle;collapsible=0;dropTarget=0;pointerEvents=0;fillColor=none;points=[[0,0.5],[1,0.5]];portConstraint=eastwest;top=0;left=0;right=0;bottom=1;strokeColor=#006658;fontColor=#5C5C5C;" vertex="1" parent="olQb39r_LatT-an38xmG-54">
          <mxGeometry y="30" width="109" height="30" as="geometry" />
        </mxCell>
        <mxCell id="olQb39r_LatT-an38xmG-56" value="PK" style="shape=partialRectangle;overflow=hidden;connectable=0;fillColor=none;top=0;left=0;bottom=0;right=0;fontStyle=1;strokeColor=#006658;fontColor=#5C5C5C;" vertex="1" parent="olQb39r_LatT-an38xmG-55">
          <mxGeometry width="30" height="30" as="geometry">
            <mxRectangle width="30" height="30" as="alternateBounds" />
          </mxGeometry>
        </mxCell>
        <mxCell id="olQb39r_LatT-an38xmG-57" value="id" style="shape=partialRectangle;overflow=hidden;connectable=0;fillColor=none;top=0;left=0;bottom=0;right=0;align=left;spacingLeft=6;fontStyle=5;strokeColor=#006658;fontColor=#5C5C5C;" vertex="1" parent="olQb39r_LatT-an38xmG-55">
          <mxGeometry x="30" width="79" height="30" as="geometry">
            <mxRectangle width="79" height="30" as="alternateBounds" />
          </mxGeometry>
        </mxCell>
        <mxCell id="olQb39r_LatT-an38xmG-61" style="shape=partialRectangle;collapsible=0;dropTarget=0;pointerEvents=0;fillColor=none;points=[[0,0.5],[1,0.5]];portConstraint=eastwest;top=0;left=0;right=0;bottom=0;strokeColor=#006658;fontColor=#5C5C5C;" vertex="1" parent="olQb39r_LatT-an38xmG-54">
          <mxGeometry y="60" width="109" height="20" as="geometry" />
        </mxCell>
        <mxCell id="olQb39r_LatT-an38xmG-62" value="&#xa;&lt;div style=&quot;color: rgb(212, 212, 212); background-color: rgb(30, 30, 30); font-family: Consolas, &amp;quot;Courier New&amp;quot;, monospace; font-weight: normal; font-size: 14px; line-height: 19px;&quot;&gt;&lt;div&gt;&lt;span style=&quot;color: #9cdcfe;&quot;&gt;name&lt;/span&gt;&lt;/div&gt;&lt;/div&gt;&#xa;&#xa;" style="shape=partialRectangle;overflow=hidden;connectable=0;fillColor=none;top=0;left=0;bottom=0;right=0;strokeColor=#006658;fontColor=#5C5C5C;fontStyle=1" vertex="1" parent="olQb39r_LatT-an38xmG-61">
          <mxGeometry width="30" height="20" as="geometry">
            <mxRectangle width="30" height="20" as="alternateBounds" />
          </mxGeometry>
        </mxCell>
        <mxCell id="olQb39r_LatT-an38xmG-63" value="name" style="shape=partialRectangle;overflow=hidden;connectable=0;fillColor=none;top=0;left=0;bottom=0;right=0;align=left;spacingLeft=6;strokeColor=#006658;fontColor=#5C5C5C;fontStyle=0" vertex="1" parent="olQb39r_LatT-an38xmG-61">
          <mxGeometry x="30" width="79" height="20" as="geometry">
            <mxRectangle width="79" height="20" as="alternateBounds" />
          </mxGeometry>
        </mxCell>
        <mxCell id="olQb39r_LatT-an38xmG-58" style="shape=partialRectangle;collapsible=0;dropTarget=0;pointerEvents=0;fillColor=none;points=[[0,0.5],[1,0.5]];portConstraint=eastwest;top=0;left=0;right=0;bottom=0;strokeColor=#006658;fontColor=#5C5C5C;" vertex="1" parent="olQb39r_LatT-an38xmG-54">
          <mxGeometry y="80" width="109" height="31" as="geometry" />
        </mxCell>
        <mxCell id="olQb39r_LatT-an38xmG-59" value="" style="shape=partialRectangle;overflow=hidden;connectable=0;fillColor=none;top=0;left=0;bottom=0;right=0;strokeColor=#006658;fontColor=#5C5C5C;fontStyle=1" vertex="1" parent="olQb39r_LatT-an38xmG-58">
          <mxGeometry width="30" height="31" as="geometry">
            <mxRectangle width="30" height="31" as="alternateBounds" />
          </mxGeometry>
        </mxCell>
        <mxCell id="olQb39r_LatT-an38xmG-60" value="weight " style="shape=partialRectangle;overflow=hidden;connectable=0;fillColor=none;top=0;left=0;bottom=0;right=0;align=left;spacingLeft=6;strokeColor=#006658;fontColor=#5C5C5C;fontStyle=0" vertex="1" parent="olQb39r_LatT-an38xmG-58">
          <mxGeometry x="30" width="79" height="31" as="geometry">
            <mxRectangle width="79" height="31" as="alternateBounds" />
          </mxGeometry>
        </mxCell>
        <mxCell id="olQb39r_LatT-an38xmG-67" style="shape=partialRectangle;collapsible=0;dropTarget=0;pointerEvents=0;fillColor=none;points=[[0,0.5],[1,0.5]];portConstraint=eastwest;top=0;left=0;right=0;bottom=0;strokeColor=#006658;fontColor=#5C5C5C;" vertex="1" parent="olQb39r_LatT-an38xmG-54">
          <mxGeometry y="111" width="109" height="20" as="geometry" />
        </mxCell>
        <mxCell id="olQb39r_LatT-an38xmG-68" value="FK" style="shape=partialRectangle;overflow=hidden;connectable=0;fillColor=none;top=0;left=0;bottom=0;right=0;strokeColor=#006658;fontColor=#5C5C5C;fontStyle=1" vertex="1" parent="olQb39r_LatT-an38xmG-67">
          <mxGeometry width="30" height="20" as="geometry">
            <mxRectangle width="30" height="20" as="alternateBounds" />
          </mxGeometry>
        </mxCell>
        <mxCell id="olQb39r_LatT-an38xmG-69" value="trip_id" style="shape=partialRectangle;overflow=hidden;connectable=0;fillColor=none;top=0;left=0;bottom=0;right=0;align=left;spacingLeft=6;strokeColor=#006658;fontColor=#5C5C5C;fontStyle=0" vertex="1" parent="olQb39r_LatT-an38xmG-67">
          <mxGeometry x="30" width="79" height="20" as="geometry">
            <mxRectangle width="79" height="20" as="alternateBounds" />
          </mxGeometry>
        </mxCell>
        <mxCell id="olQb39r_LatT-an38xmG-70" value="mover_logs" style="shape=table;startSize=30;container=1;collapsible=1;childLayout=tableLayout;fixedRows=1;rowLines=0;fontStyle=1;align=center;resizeLast=1;fillColor=#21C0A5;strokeColor=#006658;fontColor=#5C5C5C;shadow=0;rounded=1;" vertex="1" parent="1">
          <mxGeometry x="-450.99999999999994" y="451" width="109" height="131" as="geometry">
            <mxRectangle x="-217" y="650" width="60" height="30" as="alternateBounds" />
          </mxGeometry>
        </mxCell>
        <mxCell id="olQb39r_LatT-an38xmG-71" value="" style="shape=partialRectangle;collapsible=0;dropTarget=0;pointerEvents=0;fillColor=none;points=[[0,0.5],[1,0.5]];portConstraint=eastwest;top=0;left=0;right=0;bottom=1;strokeColor=#006658;fontColor=#5C5C5C;" vertex="1" parent="olQb39r_LatT-an38xmG-70">
          <mxGeometry y="30" width="109" height="30" as="geometry" />
        </mxCell>
        <mxCell id="olQb39r_LatT-an38xmG-72" value="PK" style="shape=partialRectangle;overflow=hidden;connectable=0;fillColor=none;top=0;left=0;bottom=0;right=0;fontStyle=1;strokeColor=#006658;fontColor=#5C5C5C;" vertex="1" parent="olQb39r_LatT-an38xmG-71">
          <mxGeometry width="30" height="30" as="geometry">
            <mxRectangle width="30" height="30" as="alternateBounds" />
          </mxGeometry>
        </mxCell>
        <mxCell id="olQb39r_LatT-an38xmG-73" value="id" style="shape=partialRectangle;overflow=hidden;connectable=0;fillColor=none;top=0;left=0;bottom=0;right=0;align=left;spacingLeft=6;fontStyle=5;strokeColor=#006658;fontColor=#5C5C5C;" vertex="1" parent="olQb39r_LatT-an38xmG-71">
          <mxGeometry x="30" width="79" height="30" as="geometry">
            <mxRectangle width="79" height="30" as="alternateBounds" />
          </mxGeometry>
        </mxCell>
        <mxCell id="olQb39r_LatT-an38xmG-74" style="shape=partialRectangle;collapsible=0;dropTarget=0;pointerEvents=0;fillColor=none;points=[[0,0.5],[1,0.5]];portConstraint=eastwest;top=0;left=0;right=0;bottom=0;strokeColor=#006658;fontColor=#5C5C5C;" vertex="1" parent="olQb39r_LatT-an38xmG-70">
          <mxGeometry y="60" width="109" height="31" as="geometry" />
        </mxCell>
        <mxCell id="olQb39r_LatT-an38xmG-75" value="" style="shape=partialRectangle;overflow=hidden;connectable=0;fillColor=none;top=0;left=0;bottom=0;right=0;strokeColor=#006658;fontColor=#5C5C5C;fontStyle=1" vertex="1" parent="olQb39r_LatT-an38xmG-74">
          <mxGeometry width="30" height="31" as="geometry">
            <mxRectangle width="30" height="31" as="alternateBounds" />
          </mxGeometry>
        </mxCell>
        <mxCell id="olQb39r_LatT-an38xmG-76" value="state" style="shape=partialRectangle;overflow=hidden;connectable=0;fillColor=none;top=0;left=0;bottom=0;right=0;align=left;spacingLeft=6;strokeColor=#006658;fontColor=#5C5C5C;fontStyle=0" vertex="1" parent="olQb39r_LatT-an38xmG-74">
          <mxGeometry x="30" width="79" height="31" as="geometry">
            <mxRectangle width="79" height="31" as="alternateBounds" />
          </mxGeometry>
        </mxCell>
        <mxCell id="olQb39r_LatT-an38xmG-80" style="shape=partialRectangle;collapsible=0;dropTarget=0;pointerEvents=0;fillColor=none;points=[[0,0.5],[1,0.5]];portConstraint=eastwest;top=0;left=0;right=0;bottom=0;strokeColor=#006658;fontColor=#5C5C5C;" vertex="1" parent="olQb39r_LatT-an38xmG-70">
          <mxGeometry y="91" width="109" height="20" as="geometry" />
        </mxCell>
        <mxCell id="olQb39r_LatT-an38xmG-81" style="shape=partialRectangle;overflow=hidden;connectable=0;fillColor=none;top=0;left=0;bottom=0;right=0;strokeColor=#006658;fontColor=#5C5C5C;fontStyle=1" vertex="1" parent="olQb39r_LatT-an38xmG-80">
          <mxGeometry width="30" height="20" as="geometry">
            <mxRectangle width="30" height="20" as="alternateBounds" />
          </mxGeometry>
        </mxCell>
        <mxCell id="olQb39r_LatT-an38xmG-82" value="createdAt" style="shape=partialRectangle;overflow=hidden;connectable=0;fillColor=none;top=0;left=0;bottom=0;right=0;align=left;spacingLeft=6;strokeColor=#006658;fontColor=#5C5C5C;fontStyle=0" vertex="1" parent="olQb39r_LatT-an38xmG-80">
          <mxGeometry x="30" width="79" height="20" as="geometry">
            <mxRectangle width="79" height="20" as="alternateBounds" />
          </mxGeometry>
        </mxCell>
        <mxCell id="olQb39r_LatT-an38xmG-83" style="shape=partialRectangle;collapsible=0;dropTarget=0;pointerEvents=0;fillColor=none;points=[[0,0.5],[1,0.5]];portConstraint=eastwest;top=0;left=0;right=0;bottom=0;strokeColor=#006658;fontColor=#5C5C5C;" vertex="1" parent="olQb39r_LatT-an38xmG-70">
          <mxGeometry y="111" width="109" height="20" as="geometry" />
        </mxCell>
        <mxCell id="olQb39r_LatT-an38xmG-84" value="FK" style="shape=partialRectangle;overflow=hidden;connectable=0;fillColor=none;top=0;left=0;bottom=0;right=0;strokeColor=#006658;fontColor=#5C5C5C;fontStyle=1" vertex="1" parent="olQb39r_LatT-an38xmG-83">
          <mxGeometry width="30" height="20" as="geometry">
            <mxRectangle width="30" height="20" as="alternateBounds" />
          </mxGeometry>
        </mxCell>
        <mxCell id="olQb39r_LatT-an38xmG-85" value="trip_id" style="shape=partialRectangle;overflow=hidden;connectable=0;fillColor=none;top=0;left=0;bottom=0;right=0;align=left;spacingLeft=6;strokeColor=#006658;fontColor=#5C5C5C;fontStyle=0" vertex="1" parent="olQb39r_LatT-an38xmG-83">
          <mxGeometry x="30" width="79" height="20" as="geometry">
            <mxRectangle width="79" height="20" as="alternateBounds" />
          </mxGeometry>
        </mxCell>
        <mxCell id="olQb39r_LatT-an38xmG-86" value="trips" style="shape=table;startSize=30;container=1;collapsible=1;childLayout=tableLayout;fixedRows=1;rowLines=0;fontStyle=1;align=center;resizeLast=1;fillColor=#21C0A5;strokeColor=#006658;fontColor=#5C5C5C;shadow=0;rounded=1;" vertex="1" parent="1">
          <mxGeometry x="-230" y="272" width="144" height="131" as="geometry">
            <mxRectangle x="-217" y="650" width="60" height="30" as="alternateBounds" />
          </mxGeometry>
        </mxCell>
        <mxCell id="olQb39r_LatT-an38xmG-87" value="" style="shape=partialRectangle;collapsible=0;dropTarget=0;pointerEvents=0;fillColor=none;points=[[0,0.5],[1,0.5]];portConstraint=eastwest;top=0;left=0;right=0;bottom=1;strokeColor=#006658;fontColor=#5C5C5C;" vertex="1" parent="olQb39r_LatT-an38xmG-86">
          <mxGeometry y="30" width="144" height="30" as="geometry" />
        </mxCell>
        <mxCell id="olQb39r_LatT-an38xmG-88" value="PK" style="shape=partialRectangle;overflow=hidden;connectable=0;fillColor=none;top=0;left=0;bottom=0;right=0;fontStyle=1;strokeColor=#006658;fontColor=#5C5C5C;" vertex="1" parent="olQb39r_LatT-an38xmG-87">
          <mxGeometry width="30" height="30" as="geometry">
            <mxRectangle width="30" height="30" as="alternateBounds" />
          </mxGeometry>
        </mxCell>
        <mxCell id="olQb39r_LatT-an38xmG-89" value="id" style="shape=partialRectangle;overflow=hidden;connectable=0;fillColor=none;top=0;left=0;bottom=0;right=0;align=left;spacingLeft=6;fontStyle=5;strokeColor=#006658;fontColor=#5C5C5C;" vertex="1" parent="olQb39r_LatT-an38xmG-87">
          <mxGeometry x="30" width="114" height="30" as="geometry">
            <mxRectangle width="114" height="30" as="alternateBounds" />
          </mxGeometry>
        </mxCell>
        <mxCell id="olQb39r_LatT-an38xmG-90" style="shape=partialRectangle;collapsible=0;dropTarget=0;pointerEvents=0;fillColor=none;points=[[0,0.5],[1,0.5]];portConstraint=eastwest;top=0;left=0;right=0;bottom=0;strokeColor=#006658;fontColor=#5C5C5C;" vertex="1" parent="olQb39r_LatT-an38xmG-86">
          <mxGeometry y="60" width="144" height="31" as="geometry" />
        </mxCell>
        <mxCell id="olQb39r_LatT-an38xmG-91" value="" style="shape=partialRectangle;overflow=hidden;connectable=0;fillColor=none;top=0;left=0;bottom=0;right=0;strokeColor=#006658;fontColor=#5C5C5C;fontStyle=1" vertex="1" parent="olQb39r_LatT-an38xmG-90">
          <mxGeometry width="30" height="31" as="geometry">
            <mxRectangle width="30" height="31" as="alternateBounds" />
          </mxGeometry>
        </mxCell>
        <mxCell id="olQb39r_LatT-an38xmG-92" value="name " style="shape=partialRectangle;overflow=hidden;connectable=0;fillColor=none;top=0;left=0;bottom=0;right=0;align=left;spacingLeft=6;strokeColor=#006658;fontColor=#5C5C5C;fontStyle=0" vertex="1" parent="olQb39r_LatT-an38xmG-90">
          <mxGeometry x="30" width="114" height="31" as="geometry">
            <mxRectangle width="114" height="31" as="alternateBounds" />
          </mxGeometry>
        </mxCell>
        <mxCell id="olQb39r_LatT-an38xmG-99" style="shape=partialRectangle;collapsible=0;dropTarget=0;pointerEvents=0;fillColor=none;points=[[0,0.5],[1,0.5]];portConstraint=eastwest;top=0;left=0;right=0;bottom=0;strokeColor=#006658;fontColor=#5C5C5C;" vertex="1" parent="olQb39r_LatT-an38xmG-86">
          <mxGeometry y="91" width="144" height="20" as="geometry" />
        </mxCell>
        <mxCell id="olQb39r_LatT-an38xmG-100" value="FK" style="shape=partialRectangle;overflow=hidden;connectable=0;fillColor=none;top=0;left=0;bottom=0;right=0;strokeColor=#006658;fontColor=#5C5C5C;fontStyle=1" vertex="1" parent="olQb39r_LatT-an38xmG-99">
          <mxGeometry width="30" height="20" as="geometry">
            <mxRectangle width="30" height="20" as="alternateBounds" />
          </mxGeometry>
        </mxCell>
        <mxCell id="olQb39r_LatT-an38xmG-101" value="magic_mover_id" style="shape=partialRectangle;overflow=hidden;connectable=0;fillColor=none;top=0;left=0;bottom=0;right=0;align=left;spacingLeft=6;strokeColor=#006658;fontColor=#5C5C5C;fontStyle=0" vertex="1" parent="olQb39r_LatT-an38xmG-99">
          <mxGeometry x="30" width="114" height="20" as="geometry">
            <mxRectangle width="114" height="20" as="alternateBounds" />
          </mxGeometry>
        </mxCell>
        <mxCell id="olQb39r_LatT-an38xmG-102" style="shape=partialRectangle;collapsible=0;dropTarget=0;pointerEvents=0;fillColor=none;points=[[0,0.5],[1,0.5]];portConstraint=eastwest;top=0;left=0;right=0;bottom=0;strokeColor=#006658;fontColor=#5C5C5C;" vertex="1" parent="olQb39r_LatT-an38xmG-86">
          <mxGeometry y="111" width="144" height="20" as="geometry" />
        </mxCell>
        <mxCell id="olQb39r_LatT-an38xmG-103" style="shape=partialRectangle;overflow=hidden;connectable=0;fillColor=none;top=0;left=0;bottom=0;right=0;strokeColor=#006658;fontColor=#5C5C5C;fontStyle=1" vertex="1" parent="olQb39r_LatT-an38xmG-102">
          <mxGeometry width="30" height="20" as="geometry">
            <mxRectangle width="30" height="20" as="alternateBounds" />
          </mxGeometry>
        </mxCell>
        <mxCell id="olQb39r_LatT-an38xmG-104" value="createdAt" style="shape=partialRectangle;overflow=hidden;connectable=0;fillColor=none;top=0;left=0;bottom=0;right=0;align=left;spacingLeft=6;strokeColor=#006658;fontColor=#5C5C5C;fontStyle=0" vertex="1" parent="olQb39r_LatT-an38xmG-102">
          <mxGeometry x="30" width="114" height="20" as="geometry">
            <mxRectangle width="114" height="20" as="alternateBounds" />
          </mxGeometry>
        </mxCell>
        <mxCell id="olQb39r_LatT-an38xmG-105" value="" style="edgeStyle=entityRelationEdgeStyle;endArrow=ERzeroToMany;startArrow=ERone;endFill=1;startFill=0;strokeColor=#B20000;fontColor=#5C5C5C;fillColor=#e51400;strokeWidth=2;exitX=0;exitY=0.5;exitDx=0;exitDy=0;" edge="1" parent="1" source="LBKvkX6FomTkOZFx55Uo-344" target="olQb39r_LatT-an38xmG-99">
          <mxGeometry width="100" height="100" relative="1" as="geometry">
            <mxPoint x="17" y="-47" as="sourcePoint" />
            <mxPoint x="-190" y="420" as="targetPoint" />
          </mxGeometry>
        </mxCell>
        <mxCell id="olQb39r_LatT-an38xmG-107" value="" style="edgeStyle=entityRelationEdgeStyle;endArrow=ERzeroToMany;startArrow=ERone;endFill=1;startFill=0;strokeColor=#B20000;fontColor=#5C5C5C;fillColor=#e51400;strokeWidth=2;exitX=0;exitY=0.5;exitDx=0;exitDy=0;entryX=1;entryY=0.5;entryDx=0;entryDy=0;" edge="1" parent="1" source="olQb39r_LatT-an38xmG-87" target="olQb39r_LatT-an38xmG-67">
          <mxGeometry width="100" height="100" relative="1" as="geometry">
            <mxPoint x="-191" y="484" as="sourcePoint" />
            <mxPoint x="-309" y="373" as="targetPoint" />
          </mxGeometry>
        </mxCell>
        <mxCell id="olQb39r_LatT-an38xmG-109" value="" style="edgeStyle=entityRelationEdgeStyle;endArrow=ERzeroToMany;startArrow=ERone;endFill=1;startFill=0;strokeColor=#B20000;fontColor=#5C5C5C;fillColor=#e51400;strokeWidth=2;exitX=0;exitY=0.5;exitDx=0;exitDy=0;entryX=1;entryY=0.5;entryDx=0;entryDy=0;" edge="1" parent="1" source="olQb39r_LatT-an38xmG-87" target="olQb39r_LatT-an38xmG-83">
          <mxGeometry width="100" height="100" relative="1" as="geometry">
            <mxPoint x="-220" y="327" as="sourcePoint" />
            <mxPoint x="-332" y="389" as="targetPoint" />
          </mxGeometry>
        </mxCell>
      </root>
    </mxGraphModel>
  </diagram>
</mxfile>
